<?xml version="1.0" encoding="UTF-8" standalone="no"?>
<svg
   height="24px"
   viewBox="0 -960 960 960"
   width="24px"
   fill="#e8eaed"
   version="1.1"
   id="svg4"
   sodipodi:docname="icon.svg"
   inkscape:version="1.1.1 (3bf5ae0d25, 2021-09-20)"
   inkscape:export-filename="D:\Web Design\Gumroad Remove Tracking\Store Assets\query_stats_24dp_E8EAED_FILL0_wght400_GRAD0_opsz24_x128.png"
   inkscape:export-xdpi="512"
   inkscape:export-ydpi="512"
   xmlns:inkscape="http://www.inkscape.org/namespaces/inkscape"
   xmlns:sodipodi="http://sodipodi.sourceforge.net/DTD/sodipodi-0.dtd"
   xmlns="http://www.w3.org/2000/svg"
   xmlns:svg="http://www.w3.org/2000/svg">
  <defs
     id="defs8" />
  <sodipodi:namedview
     id="namedview6"
     pagecolor="#ffffff"
     bordercolor="#666666"
     borderopacity="1.0"
     inkscape:pageshadow="2"
     inkscape:pageopacity="0.0"
     inkscape:pagecheckerboard="true"
     showgrid="false"
     inkscape:zoom="33.375"
     inkscape:cx="9.3033708"
     inkscape:cy="12"
     inkscape:window-width="1920"
     inkscape:window-height="1009"
     inkscape:window-x="1592"
     inkscape:window-y="-8"
     inkscape:window-maximized="1"
     inkscape:current-layer="svg4" />
  <path
     d="m105-399-65-47 200-320 120 140 160-260 120 180 135-214 65 47-198 314-119-179-152 247-121-141-145 233Zm475 159q42 0 71-29t29-71q0-42-29-71t-71-29q-42 0-71 29t-29 71q0 42 29 71t71 29ZM784-80 676-188q-21 14-45.5 21t-50.5 7q-75 0-127.5-52.5T400-340q0-75 52.5-127.5T580-520q75 0 127.5 52.5T760-340q0 26-7 50.5T732-244l108 108-56 56Z"
     id="path2"
     style="fill:#ff92ec;fill-opacity:1;stroke:#000000;stroke-opacity:1;stroke-width:21;stroke-miterlimit:4;stroke-dasharray:none" />
</svg>
